# xmcd CD database file
#
# Track frame offsets:
#	150
#	44361
#	53767
#	63312
#	78135
#	100121
#	114736
#	130006
#	144902
#	159929
#	175117
#	199996
#	217340
#	232519
#	245731
#	261767
#
# Disc length: 3527 seconds
#
# Revision: 0
# Processed by: cddbd v1.5.2PL0 Copyright (c) Steve Scherf et al.
# Submitted via: CDex 1.70beta2
#
DISCID=d60dc510
DTITLE=Claude Nougaro - Master Serie VOL 1
DYEAR=1900
DGENRE=Jazz
TTITLE0=Locomotive d'Or
TTITLE1=Bleu Blanc Blues
TTITLE2=Une Petite Fille
TTITLE3=La Pluie Fait Des Claquettes
TTITLE4=Ile De Re
TTITLE5=Tu Verras
TTITLE6=Nobody Knows
TTITLE7=Rimes
TTITLE8=Je Suis Sous
TTITLE9=Le Coq Et La Pendule
TTITLE10=Un Ete
TTITLE11=Comme Une Piaf
TTITLE12=Dansez Sur Moi
TTITLE13=Sing Sing Song
TTITLE14=Marci Martienne
TTITLE15=Ami Chemin
EXTD=
EXTT0=
EXTT1=
EXTT2=
EXTT3=
EXTT4=
EXTT5=
EXTT6=
EXTT7=
EXTT8=
EXTT9=
EXTT10=
EXTT11=
EXTT12=
EXTT13=
EXTT14=
EXTT15=
PLAYORDER=
